{
    "accessors": {
        "accessor_21": {
            "bufferView": "bufferView_29",
            "byteOffset": 0,
            "byteStride": 2,
            "componentType": 5123,
            "count": 4524,
            "max": [
                2261
            ],
            "min": [
                0
            ],
            "type": "SCALAR"
        },
        "accessor_23": {
            "bufferView": "bufferView_30",
            "byteOffset": 0,
            "byteStride": 12,
            "componentType": 5126,
            "count": 4524,
            "max": [
                3.69518,
                6.62212,
                14.4777
            ],
            "min": [
                -3.68466,
                -5.68145,
                0.00887868
            ],
            "type": "VEC3"
        },
        "accessor_25": {
            "bufferView": "bufferView_30",
            "byteOffset": 54288,
            "byteStride": 12,
            "componentType": 5126,
            "count": 4524,
            "max": [
                0.999457,
                0.992829,
                0.996237
            ],
            "min": [
                -0.999966,
                -0.996978,
                -0.999538
            ],
            "type": "VEC3"
        }
    },
    "animations": {},
    "asset": {
        "generator": "collada2gltf@54fd5d96f689fa31c7cb2cbfc4901a5428486f98",
        "premultipliedAlpha": true,
        "profile": {
            "api": "WebGL",
            "version": "1.0.2"
        },
        "version": "1.0.1"
    },
    "bufferViews": {
        "bufferView_29": {
            "buffer": "deer",
            "byteLength": 9048,
            "byteOffset": 0,
            "target": 34963
        },
        "bufferView_30": {
            "buffer": "deer",
            "byteLength": 108576,
            "byteOffset": 9048,
            "target": 34962
        }
    },
    "buffers": {
        "deer": {
            "byteLength": 117624,
            "type": "arraybuffer",
            "uri": "data:application/octet-stream;base64,"
        }
    },
    "materials": {
        "__glTF__defaultMaterial0": {
            "name": "__glTF__defaultMaterial0",
            "technique": "technique0",
            "values": {
                "diffuse": [
                    1,
                    1,
                    1,
                    1
                ]
            }
        }
    },
    "meshes": {
        "ID6": {
            "name": "ID6",
            "primitives": [
                {
                    "attributes": {
                        "NORMAL": "accessor_25",
                        "POSITION": "accessor_23"
                    },
                    "indices": "accessor_21",
                    "material": "__glTF__defaultMaterial0",
                    "mode": 4
                }
            ]
        }
    },
    "nodes": {
        "ID4": {
            "children": [
                "ID5"
            ],
            "matrix": [
                4.48966e-11,
                -4.48966e-11,
                1,
                0,
                1,
                2.01571e-21,
                -4.48966e-11,
                0,
                0,
                1,
                4.48966e-11,
                0,
                -0.93925,
                0.057079,
                8.21119e-08,
                1
            ],
            "name": "grp1"
        },
        "ID5": {
            "children": [],
            "matrix": [
                1,
                0,
                0,
                0,
                0,
                1,
                4.44089e-16,
                0,
                0,
                -4.44089e-16,
                1,
                0,
                0,
                0,
                0,
                1
            ],
            "meshes": [
                "ID6"
            ],
            "name": "grp1_2"
        }
    },
    "programs": {
        "program_0": {
            "attributes": [
                "a_normal",
                "a_position"
            ],
            "fragmentShader": "deer0FS",
            "vertexShader": "deer0VS"
        }
    },
    "scene": "defaultScene",
    "scenes": {
        "defaultScene": {
            "nodes": [
                "ID4"
            ]
        }
    },
    "shaders": {
        "deer0FS": {
            "type": 35632,
            "uri": "data:text/plain;base64,"
        },
        "deer0VS": {
            "type": 35633,
            "uri": "data:text/plain;base64,"
        }
    },
    "skins": {},
    "techniques": {
        "technique0": {
            "attributes": {
                "a_normal": "normal",
                "a_position": "position"
            },
            "parameters": {
                "diffuse": {
                    "type": 35666
                },
                "modelViewMatrix": {
                    "semantic": "MODELVIEW",
                    "type": 35676
                },
                "normal": {
                    "semantic": "NORMAL",
                    "type": 35665
                },
                "normalMatrix": {
                    "semantic": "MODELVIEWINVERSETRANSPOSE",
                    "type": 35675
                },
                "position": {
                    "semantic": "POSITION",
                    "type": 35665
                },
                "projectionMatrix": {
                    "semantic": "PROJECTION",
                    "type": 35676
                }
            },
            "program": "program_0",
            "states": {
                "enable": [
                    2929,
                    2884
                ]
            },
            "uniforms": {
                "u_diffuse": "diffuse",
                "u_modelViewMatrix": "modelViewMatrix",
                "u_normalMatrix": "normalMatrix",
                "u_projectionMatrix": "projectionMatrix"
            }
        }
    }
}